<svg xmlns="http://www.w3.org/2000/svg" width="800" height="430" viewBox="0 0 800 430">
<rect width="100%" height="100%" fill="white"/>
<text x="400.0" y="28" text-anchor="middle" font-family="Arial" font-size="16">Focus-state remaining_K delta curves</text>
<line x1="70" y1="370" x2="766" y2="370" stroke="#111827"/>
<line x1="70" y1="50" x2="70" y2="370" stroke="#111827"/>
<line x1="70" y1="210.0" x2="766" y2="210.0" stroke="#9ca3af" stroke-dasharray="4 4"/>
<text x="70.0" y="392" text-anchor="middle" font-family="Arial" font-size="10">0-1</text>
<text x="186.0" y="392" text-anchor="middle" font-family="Arial" font-size="10">2-3</text>
<text x="302.0" y="392" text-anchor="middle" font-family="Arial" font-size="10">4-7</text>
<text x="418.0" y="392" text-anchor="middle" font-family="Arial" font-size="10">8-15</text>
<text x="534.0" y="392" text-anchor="middle" font-family="Arial" font-size="10">16-31</text>
<text x="650.0" y="392" text-anchor="middle" font-family="Arial" font-size="10">32-63</text>
<text x="766.0" y="392" text-anchor="middle" font-family="Arial" font-size="10">64-95</text>
<polyline points="70.0,244.9 186.0,210.0 302.0,245.3 418.0,252.0 534.0,290.8 650.0,349.1 766.0,227.1" fill="none" stroke="#111827" stroke-width="2.2"/>
<text x="78" y="68" font-family="Arial" font-size="11" fill="#111827">late_growth|deep_32_63|even</text>
<polyline points="70.0,208.6 186.0,210.0 302.0,206.6 418.0,203.2 534.0,198.8 650.0,215.6 766.0,213.1" fill="none" stroke="#b91c1c" stroke-width="2.2"/>
<text x="78" y="84" font-family="Arial" font-size="11" fill="#b91c1c">late_growth|deep_32_63|odd</text>
<polyline points="70.0,190.3 186.0,191.5 302.0,186.8 418.0,165.4 534.0,128.8 650.0,200.6 766.0,210.0" fill="none" stroke="#2563eb" stroke-width="2.2"/>
<text x="78" y="100" font-family="Arial" font-size="11" fill="#2563eb">late_growth|exhaustion_0_31|odd</text>
</svg>