<svg xmlns="http://www.w3.org/2000/svg" width="920" height="520" viewBox="0 0 920 520">
<rect width="100%" height="100%" fill="white"/>
<text x="460.0" y="25" text-anchor="middle" font-family="Arial" font-size="17">Predicted vs actual state mass, L=6 alpha=1</text>
<text x="252" y="65" text-anchor="end" font-family="Arial" font-size="10">balanced|tail_64_95|even</text>
<rect x="260" y="53" width="0.5" height="8" fill="#b91c1c"/>
<rect x="260" y="63" width="270.0" height="8" fill="#2563eb"/>
<text x="252" y="89" text-anchor="end" font-family="Arial" font-size="10">early_growth|exhaustion_0_31|even</text>
<rect x="260" y="77" width="52.5" height="8" fill="#b91c1c"/>
<rect x="260" y="87" width="0.0" height="8" fill="#2563eb"/>
<text x="252" y="113" text-anchor="end" font-family="Arial" font-size="10">late_growth|exhaustion_0_31|even</text>
<rect x="260" y="101" width="51.5" height="8" fill="#b91c1c"/>
<rect x="260" y="111" width="0.1" height="8" fill="#2563eb"/>
<text x="252" y="137" text-anchor="end" font-family="Arial" font-size="10">late_growth|exhaustion_0_31|odd</text>
<rect x="260" y="125" width="36.3" height="8" fill="#b91c1c"/>
<rect x="260" y="135" width="0.0" height="8" fill="#2563eb"/>
<text x="252" y="161" text-anchor="end" font-family="Arial" font-size="10">early_growth|exhaustion_0_31|odd</text>
<rect x="260" y="149" width="35.6" height="8" fill="#b91c1c"/>
<rect x="260" y="159" width="0.0" height="8" fill="#2563eb"/>
<text x="252" y="185" text-anchor="end" font-family="Arial" font-size="10">balanced|exhaustion_0_31|even</text>
<rect x="260" y="173" width="33.2" height="8" fill="#b91c1c"/>
<rect x="260" y="183" width="0.0" height="8" fill="#2563eb"/>
<text x="252" y="209" text-anchor="end" font-family="Arial" font-size="10">balanced|exhaustion_0_31|odd</text>
<rect x="260" y="197" width="22.5" height="8" fill="#b91c1c"/>
<rect x="260" y="207" width="0.0" height="8" fill="#2563eb"/>
<text x="252" y="233" text-anchor="end" font-family="Arial" font-size="10">late_growth|deep_32_63|even</text>
<rect x="260" y="221" width="11.8" height="8" fill="#b91c1c"/>
<rect x="260" y="231" width="2.1" height="8" fill="#2563eb"/>
<text x="252" y="257" text-anchor="end" font-family="Arial" font-size="10">late_growth|deep_32_63|odd</text>
<rect x="260" y="245" width="9.8" height="8" fill="#b91c1c"/>
<rect x="260" y="255" width="2.8" height="8" fill="#2563eb"/>
<text x="252" y="281" text-anchor="end" font-family="Arial" font-size="10">early_growth|deep_32_63|odd</text>
<rect x="260" y="269" width="5.1" height="8" fill="#b91c1c"/>
<rect x="260" y="279" width="0.1" height="8" fill="#2563eb"/>
<text x="252" y="305" text-anchor="end" font-family="Arial" font-size="10">balanced|deep_32_63|even</text>
<rect x="260" y="293" width="4.4" height="8" fill="#b91c1c"/>
<rect x="260" y="303" width="0.3" height="8" fill="#2563eb"/>
<text x="252" y="329" text-anchor="end" font-family="Arial" font-size="10">early_growth|deep_32_63|even</text>
<rect x="260" y="317" width="6.8" height="8" fill="#b91c1c"/>
<rect x="260" y="327" width="2.7" height="8" fill="#2563eb"/>
<text x="252" y="353" text-anchor="end" font-family="Arial" font-size="10">balanced|deep_32_63|odd</text>
<rect x="260" y="341" width="3.0" height="8" fill="#b91c1c"/>
<rect x="260" y="351" width="0.2" height="8" fill="#2563eb"/>
<text x="252" y="377" text-anchor="end" font-family="Arial" font-size="10">late_growth|tail_64_95|even</text>
<rect x="260" y="365" width="1.6" height="8" fill="#b91c1c"/>
<rect x="260" y="375" width="0.0" height="8" fill="#2563eb"/>
<text x="252" y="401" text-anchor="end" font-family="Arial" font-size="10">late_growth|tail_64_95|odd</text>
<rect x="260" y="389" width="1.5" height="8" fill="#b91c1c"/>
<rect x="260" y="399" width="0.0" height="8" fill="#2563eb"/>
<text x="252" y="425" text-anchor="end" font-family="Arial" font-size="10">early_growth|tail_64_95|even</text>
<rect x="260" y="413" width="1.0" height="8" fill="#b91c1c"/>
<rect x="260" y="423" width="0.0" height="8" fill="#2563eb"/>
<text x="252" y="449" text-anchor="end" font-family="Arial" font-size="10">early_growth|tail_64_95|odd</text>
<rect x="260" y="437" width="0.7" height="8" fill="#b91c1c"/>
<rect x="260" y="447" width="0.0" height="8" fill="#2563eb"/>
<text x="252" y="473" text-anchor="end" font-family="Arial" font-size="10">balanced|tail_64_95|odd</text>
<rect x="260" y="461" width="0.6" height="8" fill="#b91c1c"/>
<rect x="260" y="471" width="0.0" height="8" fill="#2563eb"/>
<text x="260" y="500" font-family="Arial" font-size="11" fill="#b91c1c">actual</text>
<text x="330" y="500" font-family="Arial" font-size="11" fill="#2563eb">predicted</text>
</svg>